# Blender v2.83.5 OBJ File: ''
# www.blender.org
mtllib hexagon1.mtl
o Circle
v 1.150000 0.165034 0.000000
v 0.575000 0.165034 0.995929
v 0.575000 -0.000000 0.995929
v 1.150000 0.000000 0.000000
v -0.575000 0.000000 -0.995929
v -0.575000 0.165034 -0.995929
v 0.575000 0.165034 -0.995930
v 0.575000 0.000000 -0.995930
v -1.150000 0.000000 0.000000
v -1.150000 0.165034 0.000000
v -0.575000 0.165034 0.995930
v -0.575000 -0.000000 0.995930
v 1.068353 0.222796 0.000000
v 0.534177 0.222796 0.925221
v 0.564438 0.203474 0.977636
v 1.128877 0.203474 0.000000
v -0.473488 0.144870 0.820106
v -0.946977 0.144870 0.000000
v -0.975410 0.222796 0.000000
v -0.487705 0.222796 0.844730
v 0.534176 0.222796 -0.925221
v -0.534177 0.222796 -0.925221
v -0.487706 0.222796 -0.844730
v 0.487705 0.222796 -0.844730
v -1.068353 0.222796 0.000000
v -0.564438 0.203474 -0.977636
v -1.128877 0.203474 0.000000
v -0.534176 0.222796 0.925222
v -0.564438 0.203474 0.977636
v 0.564438 0.203474 -0.977636
v 0.473488 0.144870 -0.820106
v -0.473488 0.144870 -0.820105
v 0.946977 0.144870 0.000000
v 0.473488 0.144870 0.820105
v 0.487706 0.222796 0.844730
v 0.975410 0.222796 0.000000
vt 0.633247 0.685501
vt 0.316624 0.685501
vt 0.316624 0.633248
vt 0.633247 0.633248
vt 0.000000 0.685501
vt 0.000000 0.633248
vt 0.316624 0.633248
vt 0.316624 0.685501
vt 0.633248 0.790009
vt 0.316624 0.790009
vt 0.316624 0.737755
vt 0.633248 0.737755
vt 0.633247 0.737755
vt 0.316624 0.737755
vt 0.316624 0.685501
vt 0.633247 0.685501
vt 0.316624 0.737755
vt 0.000000 0.737755
vt 0.000000 0.685501
vt 0.316624 0.790009
vt 0.633247 0.790009
vt 0.633247 0.842263
vt 0.316624 0.842263
vt 0.853792 0.611086
vt 0.559648 0.611086
vt 0.551317 0.595412
vt 0.862124 0.595412
vt 0.274204 0.000000
vt 0.548409 0.158312
vt 0.548409 0.474936
vt 0.000000 0.158312
vt 0.274204 0.633248
vt 0.000000 0.474936
vt 0.637170 0.842263
vt 0.897896 0.842353
vt 0.901801 0.867942
vt 0.633247 0.867849
vt 0.853794 0.543614
vt 0.559648 0.543614
vt 0.572443 0.521453
vt 0.840999 0.521453
vt 0.327863 0.864424
vt 0.622007 0.864424
vt 0.630339 0.880098
vt 0.319532 0.880098
vt 0.305384 0.766602
vt 0.011241 0.766602
vt 0.002909 0.750927
vt 0.313716 0.750927
vt 0.305384 0.817610
vt 0.011241 0.817610
vt 0.002909 0.801935
vt 0.313716 0.801935
vt 0.011240 0.861932
vt 0.305384 0.861933
vt 0.313716 0.877607
vt 0.002909 0.877607
vt 1.000000 0.130363
vt 0.774204 0.521453
vt 1.000000 0.391090
vt 0.774204 0.000000
vt 0.548409 0.391090
vt 0.548409 0.130363
vt 0.897889 0.815597
vt 0.637162 0.815597
vt 0.633247 0.790009
vt 0.901803 0.790009
vt 0.901803 0.842263
vt 0.633247 0.842263
vt 0.637162 0.816675
vt 0.897889 0.816675
vt 0.637162 0.659914
vt 0.897889 0.659914
vt 0.901803 0.685501
vt 0.633247 0.685501
vt 0.897888 0.711089
vt 0.637162 0.711089
vt 0.633247 0.685501
vt 0.901802 0.685501
vt 0.897879 0.893622
vt 0.637152 0.893532
vt 0.633247 0.867942
vt 0.901802 0.868035
vt 0.548409 0.582240
vt 0.865032 0.582240
vt 0.862125 0.559288
vt 0.865033 0.572460
vt 0.548409 0.572460
vt 0.551317 0.559288
vt 0.633247 0.893270
vt 0.316624 0.893270
vt 0.000001 0.737755
vt 0.316624 0.737755
vt 0.000001 0.788763
vt 0.316624 0.788763
vt 0.316624 0.890779
vt 0.000001 0.890779
vt 0.340658 0.842263
vt 0.609212 0.842263
vt 0.840997 0.633247
vt 0.572443 0.633248
vt 0.024035 0.839771
vt 0.292589 0.839771
vt 0.292589 0.788763
vt 0.024035 0.788763
vt 0.292589 0.839771
vt 0.024036 0.839771
vn 0.8660 0.0000 0.5000
vn -0.0000 0.0000 -1.0000
vn -0.8660 0.0000 -0.5000
vn 0.0000 0.0000 1.0000
vn 0.8660 0.0000 -0.5000
vn -0.8660 0.0000 0.5000
vn 0.2995 0.9383 0.1729
vn -0.0000 -1.0000 -0.0000
vn 0.8258 0.3013 -0.4768
vn 0.0000 1.0000 0.0000
vn -0.2995 0.9383 -0.1729
vn 0.0000 0.9383 0.3459
vn 0.2995 0.9383 -0.1729
vn -0.2995 0.9383 0.1729
vn -0.8258 0.3013 -0.4768
vn 0.0000 0.3013 0.9535
vn 0.8258 0.3013 0.4768
vn -0.0000 0.3013 -0.9535
vn -0.8258 0.3013 0.4768
vn 0.7820 0.4297 0.4515
vn -0.0000 0.4297 -0.9030
vn -0.7820 0.4297 -0.4515
vn 0.0000 0.4297 0.9030
vn 0.7820 0.4297 -0.4515
vn -0.7820 0.4297 0.4515
vn 0.0000 0.9383 -0.3459
usemtl UV_untitled.002
s off
f 1/1/1 2/2/1 3/3/1 4/4/1
f 5/5/2 6/6/2 7/7/2 8/8/2
f 5/9/3 9/10/3 10/11/3 6/12/3
f 2/13/4 11/14/4 12/15/4 3/16/4
f 7/17/5 1/18/5 4/19/5 8/8/5
f 11/20/6 10/21/6 9/22/6 12/23/6
f 13/24/7 14/25/7 15/26/7 16/27/7
f 9/28/8 5/29/8 8/30/8
f 12/31/8 9/28/8 8/30/8
f 12/31/8 8/30/8 4/32/8
f 12/31/8 4/32/8 3/33/8
f 17/34/9 18/35/9 19/36/9 20/37/9
f 21/38/10 22/39/10 23/40/10 24/41/10
f 25/42/11 22/43/11 26/44/11 27/45/11
f 14/46/12 28/47/12 29/48/12 15/49/12
f 21/50/13 13/51/13 16/52/13 30/53/13
f 28/54/14 25/55/14 27/56/14 29/57/14
f 18/58/10 31/59/10 32/60/10
f 18/58/10 17/61/10 31/59/10
f 17/61/10 33/62/10 31/59/10
f 17/61/10 34/63/10 33/62/10
f 33/64/15 34/65/15 35/66/15 36/67/15
f 24/68/16 23/69/16 32/70/16 31/71/16
f 18/72/17 32/73/17 23/74/17 19/75/17
f 34/76/18 17/77/18 20/78/18 35/79/18
f 31/80/19 33/81/19 36/82/19 24/83/19
f 16/27/20 15/26/20 2/84/20 1/85/20
f 30/86/21 7/87/21 6/88/21 26/89/21
f 27/45/22 26/44/22 6/90/22 10/91/22
f 15/49/23 29/48/23 11/92/23 2/93/23
f 30/53/24 16/52/24 1/94/24 7/95/24
f 29/57/25 27/56/25 10/96/25 11/97/25
f 19/98/10 23/99/10 22/43/10 25/42/10
f 36/100/10 35/101/10 14/25/10 13/24/10
f 20/102/10 19/103/10 25/55/10 28/54/10
f 35/104/10 20/105/10 28/47/10 14/46/10
f 24/106/10 36/107/10 13/51/10 21/50/10
f 30/86/26 26/89/26 22/39/26 21/38/26
